<svg width="40" height="16" viewBox="0 0 40 16" fill="none" xmlns="http://www.w3.org/2000/svg">
<rect width="40" height="16" rx="8" fill="#FF3030" fill-opacity="0.7"/>
<path d="M4.9775 3.048H7.4015C7.6655 3.048 7.8575 3.148 7.9775 3.348L11.8655 8.832V4.896C11.8655 4.128 11.5655 3.596 10.9655 3.3C11.0135 3.132 11.1295 3.048 11.3135 3.048H14.0015C14.0975 3.08 14.1655 3.144 14.2055 3.24V3.348C13.5975 3.492 13.2815 3.956 13.2575 4.74V12.384C13.2495 12.48 13.1815 12.548 13.0535 12.588H12.2855C11.9415 12.588 11.6535 12.412 11.4215 12.06L6.9215 5.388V10.992C6.9215 11.784 6.6215 12.3 6.0215 12.54C5.7735 12.612 5.6215 12.648 5.5655 12.648C5.5335 12.648 5.5175 12.616 5.5175 12.552V4.896C5.5175 4.128 5.2175 3.596 4.6175 3.3C4.6735 3.132 4.7935 3.048 4.9775 3.048ZM15.398 3.024H21.554C21.658 3.024 21.742 3.056 21.806 3.12L22.082 4.392V4.548C22.05 4.644 21.99 4.696 21.902 4.704C21.686 4.4 21.378 4.248 20.978 4.248H17.918V6.948H21.314C21.41 6.98 21.458 7.048 21.458 7.152V7.956C21.45 8.076 21.386 8.144 21.266 8.16C19.25 8.168 18.134 8.172 17.918 8.172V11.016H20.786C21.466 10.976 21.806 10.82 21.806 10.548H21.95C22.03 10.58 22.074 10.648 22.082 10.752L21.902 12.408C21.862 12.504 21.798 12.552 21.71 12.552H16.034C15.906 12.488 15.842 12.36 15.842 12.168V4.5C15.842 4.004 15.562 3.612 15.002 3.324C15.074 3.124 15.206 3.024 15.398 3.024ZM23.2874 3.3H26.6594C26.8354 3.3 26.9434 3.376 26.9834 3.528H26.9714C26.4834 3.72 26.2394 3.964 26.2394 4.26C26.2394 4.308 26.2434 4.356 26.2514 4.404L27.5714 9.216H27.6194L29.4434 3.816C29.4674 3.744 29.5194 3.704 29.5994 3.696H30.4514C30.5394 3.696 30.5994 3.74 30.6314 3.828L32.2754 9.06H32.3354L33.1874 4.512V4.188C33.1554 3.892 32.9714 3.708 32.6354 3.636C32.6674 3.428 32.8074 3.316 33.0554 3.3H35.4074C35.6154 3.316 35.7434 3.412 35.7914 3.588V3.636C35.3434 3.764 35.0314 4.028 34.8554 4.428L33.2114 12.456C33.1394 12.592 33.0514 12.66 32.9474 12.66H32.9234L31.7474 12.672C31.5554 12.672 31.4274 12.568 31.3634 12.36L29.6594 7.188H29.6234L27.9314 12.216C27.8594 12.512 27.7234 12.66 27.5234 12.66H26.6594C26.4914 12.66 26.3834 12.548 26.3354 12.324L23.9234 4.344C23.7074 3.944 23.3594 3.728 22.8794 3.696V3.588C22.9354 3.396 23.0714 3.3 23.2874 3.3Z" fill="white"/>
</svg>
