<svg width="8" height="12" viewBox="0 0 8 12" fill="none" xmlns="http://www.w3.org/2000/svg">
<path d="M0.428278 5.9104C-0.112724 5.5175 -0.146829 4.75669 0.357065 4.32176L5.18785 0.152112C5.39686 -0.0282977 5.70875 -0.0506209 5.944 0.0979899C6.18844 0.252399 6.28363 0.548916 6.17131 0.806087L5.03391 3.41032C4.8498 3.83186 4.97831 4.31787 5.35044 4.60744L7.51943 6.29517C8.05384 6.71101 8.052 7.48635 7.51562 7.89991L3.01426 11.3705C2.81445 11.5245 2.52821 11.5255 2.32717 11.3729C2.12891 11.2224 2.06621 10.9624 2.17582 10.7453L3.11023 8.89449C3.33338 8.4525 3.19933 7.92287 2.78888 7.62478L0.428278 5.9104Z" fill="#FFEF3C"/>
</svg>
