<svg width="15" height="15" viewBox="0 0 15 15" fill="none" xmlns="http://www.w3.org/2000/svg">
<path d="M6.11664 2.57578C6.75904 1.44597 8.38996 1.45351 9.02188 2.58922L13.6218 10.8563C14.2399 11.9672 13.4367 13.3333 12.1654 13.3333H2.86492C1.5868 13.3333 0.784333 11.9539 1.41608 10.8429L6.11664 2.57578Z" fill="#FFA200"/>
<path d="M6.6665 5.62502C6.6665 5.16478 7.0396 4.79169 7.49984 4.79169C7.96007 4.79169 8.33317 5.16478 8.33317 5.62502V8.75002C8.33317 9.21026 7.96007 9.58335 7.49984 9.58335C7.0396 9.58335 6.6665 9.21026 6.6665 8.75002V5.62502Z" fill="#722B16"/>
<path d="M6.6665 11.0416C6.6665 10.5814 7.0396 10.2083 7.49984 10.2083C7.96007 10.2083 8.33317 10.5814 8.33317 11.0416C8.33317 11.5019 7.96007 11.875 7.49984 11.875C7.0396 11.875 6.6665 11.5019 6.6665 11.0416Z" fill="#722B16"/>
</svg>
